Coordinates
version=1
nRows=32
nColumns=18
inDegrees=yes

Units are S.I. units (second, meters, Newtons, ...)
If the header above contains a line with 'inDegrees', this indicates whether rotational values are in degrees (yes) or radians (no).

endheader
time	ground_thorax_rot_x	ground_thorax_rot_y	ground_thorax_rot_z	ground_thorax_tx	ground_thorax_ty	ground_thorax_tz	clav_prot	clav_elev	scapula_abduction	scapula_elevation	scapula_upward_rot	scapula_winging	plane_elv	shoulder_elv	axial_rot	elbow_flexion	pro_sup
      2.05000000	     -0.74311961	      1.00118277	     -8.47129898	     -0.00443133	      0.00548104	     -0.00800304	    -22.95157792	     -4.08052617	     -5.98383160	     -6.59086065	     24.40022214	      2.57437210	     54.71147373	     52.70238714	    -24.01440898	      0.00000000	     34.32000000
      2.06000000	     -0.65092125	      1.00581870	     -8.60670489	     -0.00447440	      0.00541773	     -0.00801724	    -22.99167423	     -3.96539539	     -5.72157375	     -6.61687457	     24.92596131	      2.41199918	     54.68641207	     53.23407649	    -24.06451727	      0.00000000	     34.32000000
      2.07000000	     -0.66165866	      0.89854770	     -8.65712674	     -0.00436008	      0.00539149	     -0.00803011	    -22.94954634	     -3.79355030	     -5.39605088	     -6.57453446	     25.35373265	      2.24732535	     54.91467166	     53.78428823	    -24.18689111	      0.00000000	     34.32000000
      2.08000000	     -0.79704932	      0.81877816	     -8.63289570	     -0.00425663	      0.00536766	     -0.00827300	    -22.88237124	     -3.59541573	     -5.11215176	     -6.48699603	     25.66591832	      2.09822215	     55.39129547	     54.30720662	    -24.32711607	      0.00000000	     34.32000000
      2.09000000	     -0.95382451	      0.82197019	     -8.64086284	     -0.00418931	      0.00536249	     -0.00863057	    -22.88715865	     -3.44813751	     -4.94037611	     -6.44112828	     25.97755591	      1.97199071	     55.86927894	     54.76269225	    -24.38237600	      0.00000000	     34.32000000
      2.10000000	     -1.17769404	      0.90879727	     -8.45064985	     -0.00436885	      0.00561133	     -0.00891132	    -22.93561812	     -3.43880993	     -4.86583802	     -6.48376537	     26.20893812	      1.91835293	     55.91918744	     55.00335170	    -24.37185025	      0.00000000	     34.32000000
      2.11000000	     -1.04344104	      0.84849676	     -8.60282039	     -0.00437679	      0.00540848	     -0.00863559	    -23.01518950	     -3.09128773	     -4.62512026	     -6.36342906	     26.87316825	      1.64055250	     56.02188210	     55.47295521	    -24.40473282	      0.00000000	     34.32000000
      2.12000000	     -0.92825896	      0.66433462	     -8.52524149	     -0.00440955	      0.00537003	     -0.00836120	    -22.88418703	     -2.76332397	     -4.00963068	     -6.24425953	     27.53999575	      1.36588690	     55.72215825	     55.73772895	    -24.58709753	      0.00000000	     34.32000000
      2.13000000	     -0.94313919	      0.85321045	     -8.51873959	     -0.00445671	      0.00536092	     -0.00846838	    -22.95136841	     -2.76320471	     -3.91319722	     -6.30670884	     27.84113613	      1.30143380	     55.53279107	     56.17507057	    -24.54326227	      0.00000000	     34.32000000
      2.14000000	     -1.11366507	      0.95673115	     -8.34659602	     -0.00454760	      0.00543374	     -0.00877365	    -22.98246635	     -2.78209099	     -3.82650744	     -6.35950776	     28.03281912	      1.26734617	     55.58975695	     56.38816859	    -24.53299915	      0.00000000	     34.32000000
      2.15000000	     -1.18292246	      0.71866327	     -8.56665591	     -0.00431356	      0.00539491	     -0.00879601	    -23.06174981	     -2.81338703	     -3.71062861	     -6.45354248	     28.37843100	      1.20596787	     56.18330376	     57.00616835	    -24.51026329	      0.00000000	     34.32000000
      2.16000000	     -1.33506823	      0.52981708	     -8.56821099	     -0.00424390	      0.00540919	     -0.00892746	    -23.14180929	     -2.56996211	     -3.64682601	     -6.34877710	     28.74725590	      1.03642787	     56.84739412	     57.47810040	    -24.52366644	      0.00000000	     34.32000000
      2.17000000	     -1.27782210	      0.66526399	     -8.48419846	     -0.00431060	      0.00537639	     -0.00911647	    -23.30630393	     -1.93237243	     -3.70979137	     -5.98976395	     29.28230265	      0.68981530	     57.40368686	     57.93303975	    -24.45820314	      0.00000000	     34.32000000
      2.18000000	     -1.32440364	      0.88605020	     -8.48610978	     -0.00430477	      0.00538800	     -0.00935813	    -23.40235684	     -1.61434324	     -3.68462415	     -5.83276854	     29.66281611	      0.49613824	     57.48436527	     58.49258950	    -24.31436180	      0.00000000	     34.32000000
      2.19000000	     -1.46707737	      1.03579569	     -8.46698865	     -0.00435088	      0.00543755	     -0.00960941	    -23.48583077	     -1.48876286	     -3.61919719	     -5.80761213	     29.99853409	      0.38004824	     57.38659493	     58.91324879	    -24.26379651	      0.00000000	     34.32000000
      2.20000000	     -1.66418121	      1.03100923	     -8.30236958	     -0.00452324	      0.00561207	     -0.00982421	    -23.55800908	     -1.46536523	     -3.59757106	     -5.83342644	     30.20938529	      0.32674506	     57.39388366	     59.12682805	    -24.24993270	      0.00000000	     34.32000000
      2.21000000	     -1.59616231	      0.70223105	     -8.50723245	     -0.00429196	      0.00545600	     -0.00955261	    -23.67461869	     -1.32758873	     -3.48109300	     -5.82793447	     30.69666539	      0.17426577	     57.88921850	     59.49202633	    -24.25903571	      0.00000000	     34.32000000
      2.22000000	     -1.74424331	      0.69706171	     -8.35695242	     -0.00449513	      0.00552402	     -0.00979769	    -23.73417450	     -1.31846987	     -3.45862383	     -5.85640291	     30.87222082	      0.13361412	     57.90956446	     59.65843012	    -24.24911671	      0.00000000	     34.32000000
      2.23000000	     -1.70518847	      0.51921213	     -8.53068087	     -0.00420688	      0.00540587	     -0.00975020	    -23.86784230	     -1.15223919	     -3.38922234	     -5.82676473	     31.34317324	     -0.02476811	     58.40316289	     60.19443389	    -24.22052117	      0.00000000	     34.32000000
      2.24000000	     -1.75679282	      0.55535501	     -8.54319428	     -0.00417235	      0.00538578	     -0.01003693	    -23.96638753	     -0.89176172	     -3.40524633	     -5.69613066	     31.64781321	     -0.17976074	     58.61762691	     60.83046692	    -24.16692239	      0.00000000	     34.32000000
      2.25000000	     -1.80302220	      0.58383701	     -8.54669000	     -0.00415689	      0.00536751	     -0.01019458	    -24.05605161	     -0.57895524	     -3.47794640	     -5.51295814	     31.87417125	     -0.33443455	     58.68788414	     61.50445084	    -24.12303016	      0.00000000	     34.32000000
      2.26000000	     -1.91484292	      0.54540639	     -8.54557147	     -0.00413285	      0.00541451	     -0.01024565	    -24.13523291	     -0.34835304	     -3.55455784	     -5.37881958	     32.04134459	     -0.44753155	     58.60290946	     61.94312019	    -24.09983019	      0.00000000	     34.32000000
      2.27000000	     -1.77758636	      0.45075792	     -8.52813513	     -0.00424623	      0.00539534	     -0.01004136	    -24.16178979	     -0.07075043	     -3.59073710	     -5.19843078	     32.15736870	     -0.56354109	     58.59172671	     62.58987134	    -24.10081548	      0.00000000	     34.32000000
      2.28000000	     -1.88186950	      0.38371465	     -8.39345005	     -0.00441096	      0.00535130	     -0.00994514	    -24.23202938	     -0.06183335	     -3.61710613	     -5.21924899	     32.29013650	     -0.59522670	     58.54896662	     62.73273265	    -24.08977040	      0.00000000	     34.32000000
      2.29000000	     -1.76173122	      0.15807862	     -8.50665159	     -0.00438384	      0.00531932	     -0.00974451	    -24.27355326	     -0.21851876	     -3.46594027	     -5.37757832	     32.53218856	     -0.59640725	     58.51625392	     63.30197022	    -24.04910682	      0.00000000	     34.32000000
      2.30000000	     -1.95853597	      0.12146340	     -8.30340443	     -0.00463131	      0.00531286	     -0.01001113	    -24.36036723	     -0.22061773	     -3.45294769	     -5.42190329	     32.75142587	     -0.64361833	     58.50034699	     63.52835776	    -24.03159672	      0.00000000	     34.32000000
      2.31000000	     -2.06961389	     -0.45561007	     -8.54203803	     -0.00425123	      0.00529721	     -0.00997748	    -24.19807893	     -0.30951626	     -2.78586193	     -5.55823076	     33.23372507	     -0.71088651	     58.39345380	     64.21607212	    -23.65859643	      0.00000000	     34.32000000
      2.32000000	     -2.18190126	     -0.44063538	     -8.53248945	     -0.00427862	      0.00533257	     -0.01017208	    -24.33155305	     -0.17508428	     -2.78995691	     -5.52752633	     33.58670116	     -0.83084615	     58.19543288	     64.71605989	    -23.59873874	      0.00000000	     34.32000000
      2.33000000	     -2.18684524	     -0.45043257	     -8.53739651	     -0.00429939	      0.00533348	     -0.01014887	    -24.43755434	     -0.03169049	     -2.80015074	     -5.47670983	     33.87036450	     -0.93882036	     57.92607734	     65.19611106	    -23.55626124	      0.00000000	     34.32000000
      2.34000000	     -2.17250922	     -0.52119305	     -8.54644576	     -0.00436303	      0.00530229	     -0.01004529	    -24.50417407	      0.05260076	     -2.77473734	     -5.45537345	     34.08849814	     -1.01276428	     57.71258903	     65.64005474	    -23.53274508	      0.00000000	     34.32000000
      2.35000000	     -2.34976160	     -0.59928562	     -8.38210146	     -0.00452814	      0.00542064	     -0.01016273	    -24.59378301	      0.07459859	     -2.79811967	     -5.47479832	     34.27210418	     -1.05982558	     57.66709129	     65.83874453	    -23.51788927	      0.00000000	     34.32000000
      2.36000000	     -2.29920464	     -1.08689946	     -8.55285602	     -0.00427644	      0.00523644	     -0.01002344	    -24.50473418	      0.39130550	     -2.51186597	     -5.28651245	     34.56050654	     -1.21849438	     57.92616139	     66.76088117	    -23.58755463	      0.00000000	     34.32000000
